<?xml version="1.0" standalone="no"?>
<!DOCTYPE svg PUBLIC "-//W3C//DTD SVG 20010904//EN"
 "http://www.w3.org/TR/2001/REC-SVG-20010904/DTD/svg10.dtd">
<svg version="1.0" xmlns="http://www.w3.org/2000/svg"
 width="512.000000pt" height="512.000000pt" viewBox="0 0 512.000000 512.000000"
 preserveAspectRatio="xMidYMid meet">
<metadata>
Created by potrace 1.14, written by Peter Selinger 2001-2017
</metadata>
<g transform="translate(0.000000,512.000000) scale(0.100000,-0.100000)"
fill="#000000" stroke="none">
<path d="M430 5104 c-197 -52 -364 -221 -415 -419 -18 -70 -20 -192 -4 -267
14 -70 69 -182 116 -238 49 -60 126 -122 185 -151 l48 -23 0 -1445 0 -1446
-63 -33 c-73 -37 -168 -128 -215 -205 -54 -89 -75 -161 -80 -273 -8 -180 42
-308 168 -434 116 -116 243 -170 402 -170 101 0 168 15 253 55 116 56 216 153
266 259 l24 49 1085 -6 c597 -4 1248 -7 1447 -7 l363 0 21 -43 c12 -23 40 -65
62 -92 175 -215 466 -277 717 -152 88 43 204 159 247 247 60 120 79 263 52
392 -32 154 -155 315 -296 387 l-43 21 0 1450 0 1450 43 21 c104 53 198 151
252 264 40 85 55 152 55 253 0 159 -54 286 -170 402 -126 126 -254 176 -434
168 -112 -5 -184 -26 -273 -80 -74 -45 -166 -139 -202 -208 l-30 -57 -1088 -6
c-598 -4 -1250 -7 -1449 -7 l-360 0 -23 48 c-67 137 -214 255 -371 297 -69 19
-218 18 -290 -1z m3550 -696 c49 -208 220 -379 428 -428 l52 -12 0 -1407 0
-1407 -52 -13 c-138 -34 -271 -127 -347 -245 -39 -59 -91 -187 -91 -222 0 -12
-206 -14 -1409 -14 l-1409 0 -12 53 c-49 206 -225 382 -431 429 l-49 11 0
1408 0 1407 53 12 c207 49 378 220 427 428 l12 52 1408 0 1408 0 12 -52z"/>
<path d="M1350 3425 l0 -275 150 0 150 0 0 125 0 125 380 0 380 0 0 -855 0
-855 -130 0 -130 0 0 -150 0 -150 410 0 410 0 0 155 0 155 -130 0 -130 0 0
850 0 850 380 0 380 0 0 -125 0 -125 150 0 150 0 0 275 0 275 -1210 0 -1210 0
0 -275z"/>
</g>
</svg>
